<svg width="25" height="29" viewBox="0 0 25 29" fill="none" xmlns="http://www.w3.org/2000/svg">
<path d="M20.4951 17.1844C20.314 17.4091 19.8071 18.6292 19.9519 19.9778C20.0968 21.3905 21.1107 27.7157 21.3279 29H19.3726C19.0829 27.0735 18.1776 21.551 18.0328 20.1383C17.8879 18.5008 18.4311 16.5422 19.2277 15.9643C21.0745 14.4873 22.1608 12.4646 22.2694 10.2491C22.378 8.03371 21.4728 5.94671 19.7709 4.30922C18.069 2.70384 15.7515 1.77272 13.2892 1.7085C10.8993 1.64429 8.65429 2.41487 6.87998 3.82761C5.14188 5.27245 4.09178 7.23102 3.98315 9.31801C3.94694 9.96017 3.98315 10.5702 4.12799 11.1803C4.23662 11.694 4.12799 12.2077 3.8383 12.6572C3.40378 13.2994 2.38989 14.9369 1.99157 16.2854C2.38989 16.3496 3.15031 16.3817 3.8383 16.4138L4.70735 16.4459L4.99704 20.3309C5.03325 21.1657 5.2143 21.7758 5.64882 22.0969C6.08335 22.4179 6.84377 22.5464 7.89387 22.4179H7.96629L8.6905 22.3858C9.16124 22.3537 9.59576 22.5143 9.92166 22.8032C10.2475 23.0922 10.4286 23.5417 10.4286 23.9591L10.1751 29H8.25598L8.47324 24.1196H8.07492C6.44545 24.2802 5.25051 24.0233 4.38146 23.3812C3.54862 22.739 3.1141 21.7437 3.07789 20.3951L2.89683 18.0513C1.59326 17.9871 0.760418 17.8586 0.289683 17.2807C-4.10079e-07 16.9275 -0.0724207 16.478 0.072421 15.9322C0.543156 14.4552 1.55705 12.7214 2.17262 11.7903C2.24505 11.694 2.28126 11.5655 2.24505 11.4692C2.1002 10.7308 2.02778 9.96017 2.06399 9.22169C2.20884 6.68519 3.43999 4.30922 5.5764 2.57541C7.71282 0.841595 10.4648 -0.0895269 13.3254 0.00679604C16.3309 0.0710113 19.0829 1.19478 21.1469 3.15335C23.2109 5.11191 24.261 7.64842 24.1523 10.2812C24.0437 12.9462 22.7401 15.4185 20.4951 17.1844Z" fill="#756DFF"/>
<path d="M19.264 13.0104C16.9466 15.0332 16.2948 11.1802 12.4565 10.3454C9.77689 9.76751 5.14196 9.41432 7.31459 5.85037C9.12511 2.89647 13.8325 2.41486 17.1276 4.40553C20.4228 6.3962 21.9798 10.6665 19.264 13.0104Z" fill="#756DFF"/>
</svg>
