<svg width="32" height="32" viewBox="0 0 32 32" fill="none" xmlns="http://www.w3.org/2000/svg">
<path d="M15.9004 0.0957031C7.13503 0.0957031 0.0292969 7.20144 0.0292969 15.9668C0.0292969 24.7322 7.13503 31.8379 15.9004 31.8379C24.6658 31.8379 31.7715 24.7322 31.7715 15.9668C31.7715 7.20144 24.6658 0.0957031 15.9004 0.0957031ZM26.4186 26.485C23.6091 29.2945 19.8737 30.8418 15.9004 30.8418C11.9271 30.8418 8.19169 29.2945 5.38217 26.485C2.57266 23.6755 1.02539 19.9401 1.02539 15.9668C1.02539 11.9935 2.57266 8.25809 5.38217 5.44858C8.19169 2.63906 11.9271 1.0918 15.9004 1.0918C19.8737 1.0918 23.6091 2.63906 26.4186 5.44858C29.2281 8.25809 30.7754 11.9935 30.7754 15.9668C30.7754 19.9401 29.2281 23.6755 26.4186 26.485Z" fill="#555555"/>
<g clip-path="url(#clip0)">
<path d="M8.5 21.25H13.228C16.2627 21.25 17.3153 16.7223 14.6327 15.0978C16.4333 13.3323 15.3187 10 12.9027 10H8.5C8.224 10 8 10.252 8 10.5625V20.6875C8 20.998 8.224 21.25 8.5 21.25V21.25ZM9 11.125H12.9027C15.0433 11.125 15.046 14.701 12.9027 14.701H9V11.125ZM9 15.826H13.228C15.802 15.826 15.802 20.125 13.228 20.125H9V15.826Z" fill="#555555"/>
<path d="M20.2498 12.8927C18.0771 12.8927 16.4131 15.0587 16.4931 16.762C16.3284 19.222 18.0911 21.25 20.2498 21.25C21.5911 21.25 22.8418 20.4512 23.5131 19.1642C23.8484 18.5215 22.9858 17.9545 22.6511 18.5942C22.1584 19.5385 21.2378 20.125 20.2498 20.125C18.7918 20.125 17.6064 18.874 17.4998 17.2967C18.4618 17.3095 20.2571 17.1557 23.4911 17.272C23.5018 17.272 23.5091 17.266 23.5191 17.266C24.8524 17.1985 23.3931 12.8927 20.2498 12.8927ZM17.6311 16.1162C18.4884 13.2745 22.1098 13.3592 22.8911 16.1642C20.1818 16.237 18.5604 16.1147 17.6311 16.1162Z" fill="#555555"/>
<path d="M22.2055 11.848C22.8675 11.848 22.8668 10.723 22.2055 10.723H18.2921C17.6301 10.723 17.6308 11.848 18.2921 11.848H22.2055Z" fill="#555555"/>
</g>
<defs>
<clipPath id="clip0">
<rect width="16" height="18" fill="white" transform="translate(8 7)"/>
</clipPath>
</defs>
</svg>
