<svg width="12" height="13" viewBox="0 0 12 13" fill="none" xmlns="http://www.w3.org/2000/svg">
<path d="M5.98456 0.976807C2.67937 0.976807 0 3.66309 0 6.97681C0 10.2905 2.67937 12.9768 5.98456 12.9768C9.28974 12.9768 11.9691 10.2905 11.9691 6.97681C11.9691 3.66309 9.28974 0.976807 5.98456 0.976807ZM5.98456 11.8155C3.31728 11.8155 1.1583 9.65138 1.1583 6.97681C1.1583 4.30267 3.31687 2.1381 5.98456 2.1381C8.65183 2.1381 10.8108 4.30223 10.8108 6.97681C10.8108 9.65097 8.65224 11.8155 5.98456 11.8155ZM8.57507 9.37042C8.34307 9.60539 7.47638 10.3719 6.06385 10.3719C4.07471 10.3719 2.67379 8.88585 2.67379 6.94693C2.67379 5.03196 4.12831 3.57432 6.04643 3.57432C7.38646 3.57432 8.18779 4.21835 8.40147 4.41575C8.45168 4.46205 8.48392 4.52467 8.49247 4.59253C8.50103 4.66038 8.48534 4.72908 8.44819 4.78644L8.01009 5.4666C7.9174 5.61055 7.72133 5.64277 7.58781 5.53727C7.38041 5.37333 6.8201 4.99199 6.09872 4.99199C4.93311 4.99199 4.21851 5.84675 4.21851 6.92946C4.21851 7.93565 4.86735 8.95427 6.10743 8.95427C6.89549 8.95427 7.47913 8.49365 7.69348 8.2956C7.82066 8.17809 8.02157 8.19788 8.1235 8.33764L8.60287 8.99498C8.64373 9.05057 8.6634 9.11899 8.6583 9.18786C8.6532 9.25673 8.62368 9.32149 8.57507 9.37042Z" fill="#555555"/>
</svg>
