<svg width="38" height="38" viewBox="0 0 38 38" fill="none" xmlns="http://www.w3.org/2000/svg">
<path d="M34.4753 0.00146493C34.3204 0.00146493 34.1727 0.0747167 34.0178 0.23001L32.9215 1.32878L32.4654 0.870229L31.8252 1.46503L32.328 1.969L31.6877 2.56527L31.2317 2.10672L30.5914 2.7484L31.049 3.20549L29.998 4.30426C29.6837 4.61925 29.6837 4.90493 29.998 5.21991L23.8776 11.3555C22.5123 10.2611 21.0564 9.43188 19.675 9.0202C17.1052 8.25838 14.822 8.80777 13.0503 10.5761C12.2683 11.3599 11.7888 12.3165 11.5885 13.4607C11.2699 15.3154 9.63709 16.7629 7.7061 16.8947C5.59971 17.0369 3.74912 17.8851 2.36191 19.2754C-1.29834 22.9439 -0.634703 29.5995 3.86898 34.1089C6.42706 36.6727 9.68679 38 12.6863 38C14.9696 38 17.0877 37.2045 18.6693 35.6193C20.058 34.2275 20.9029 32.3743 21.0447 30.2632C21.1762 28.3293 22.5751 26.6914 24.4257 26.3706C25.5674 26.1713 26.5672 25.6908 27.3492 24.9055C29.1136 23.1373 29.6618 20.843 28.9016 18.2689C28.6502 17.409 28.2 16.5344 27.6694 15.6583L25.5206 17.8104C25.7501 18.2499 25.9445 18.6748 26.0702 19.0923C26.5204 20.6145 26.2807 21.8553 25.2925 22.8457C24.9388 23.1959 24.5178 23.3892 23.9682 23.4874C20.8049 24.0368 18.339 26.8174 18.1211 30.08C18.0305 31.4704 17.4926 32.6731 16.6141 33.5595C14.0896 36.0823 9.33451 35.4201 5.97099 32.0476C2.60748 28.678 1.89999 23.858 4.41714 21.3353C5.30297 20.4533 6.50161 19.9156 7.88882 19.8248C11.1442 19.6065 13.9127 17.135 14.4667 13.9647C14.5647 13.4153 14.7533 12.9919 15.107 12.6374C15.7867 11.9561 16.5629 11.6294 17.4824 11.6294C17.899 11.6294 18.3784 11.7159 18.852 11.858C19.7729 12.1334 20.7991 12.6769 21.7756 13.4153L16.8889 18.3144C16.3531 18.1908 15.7963 18.1899 15.2601 18.3118C14.7239 18.4336 14.222 18.6751 13.7918 19.0182C13.3615 19.3612 13.014 19.7971 12.775 20.2934C12.536 20.7897 12.4118 21.3336 12.4115 21.8846C12.4115 23.9035 14.0501 25.5458 16.0659 25.5458C18.0817 25.5458 19.7203 23.9035 19.7203 21.8832C19.7203 21.6605 19.6692 21.4539 19.6282 21.2415L32.9215 7.87308C33.2358 8.18806 33.5676 8.18806 33.8819 7.87308L34.9782 6.77431L35.4342 7.23286L36.0277 6.63806L35.5716 6.17951L36.2104 5.53929L36.5306 6.17951L37.124 5.53929L36.668 5.08073L37.7643 3.98196C38.0786 3.66698 38.0786 3.33588 37.7643 3.0209L34.9767 0.228545C34.8448 0.0910089 34.6654 0.00924091 34.4753 0V0.00146493ZM34.3379 1.78441L34.9782 2.42609L32.1453 5.21991L31.5518 4.62511L34.3379 1.78441ZM35.5716 2.88318L36.2104 3.52487L33.379 6.31722L32.7841 5.67553L35.5716 2.88318ZM8.89451 24.3576L6.83928 26.4175L11.5432 31.1319L13.5985 29.0721L8.89451 24.3576Z" fill="#6C63FF"/>
</svg>
