<svg width="30" height="26" viewBox="0 0 30 26" fill="none" xmlns="http://www.w3.org/2000/svg">
<path d="M8.5875 0C3.86585 0 0 3.86591 0 8.58755C0 12.1914 2.6811 15.0939 5.7 17.7376C8.7189 20.3813 12.1979 22.8402 14.325 25.2376C14.4122 25.3375 14.5204 25.4169 14.6418 25.4701C14.7632 25.5234 14.895 25.5492 15.0275 25.5456C15.1601 25.5421 15.2902 25.5093 15.4086 25.4496C15.527 25.3899 15.6308 25.3048 15.7125 25.2004C17.6561 22.9206 21.1658 20.4514 24.225 17.7755C27.2842 15.0994 30.0013 12.1733 30 8.58792C30 3.86628 26.1717 0.000366211 21.45 0.000366211C18.8137 0.000366211 16.5707 1.34617 15 3.22549C13.4293 1.34929 11.2213 0.000366211 8.5875 0.000366211V0ZM8.5875 1.8C10.9771 1.8 13.0429 3.04955 14.25 4.91255C14.3322 5.03623 14.4436 5.13769 14.5745 5.20786C14.7053 5.27803 14.8515 5.31475 15 5.31475C15.1485 5.31475 15.2947 5.27803 15.4255 5.20786C15.5564 5.13769 15.6678 5.03623 15.75 4.91255C16.9571 3.04955 19.0604 1.8 21.45 1.8C25.1985 1.8 28.2 4.83911 28.2 8.58755C28.2008 11.2109 25.9784 13.8416 23.025 16.4251C20.3177 18.7932 17.215 21.046 15 23.4C12.6616 20.9827 9.53358 18.7267 6.8625 16.3876C3.95489 13.8413 1.8 11.2748 1.8 8.58755C1.8 4.83911 4.839 1.8 8.5875 1.8Z" fill="#6C63FF"/>
</svg>
