<svg width="27" height="40" viewBox="0 0 27 40" fill="none" xmlns="http://www.w3.org/2000/svg">
<path d="M12.1663 0C9.94797 0 8.12072 1.93571 8.12072 4.28571V6.47286L7.95216 5.89286C7.30892 3.64429 5.01778 2.35429 2.89521 3.03571C0.77264 3.71714 -0.445074 6.14429 0.19817 8.39286L3.69623 20.4471C3.44271 20.5529 3.17031 20.6757 2.89521 20.8471C1.76785 21.5614 0.493496 23.0071 0.113213 25.3129C-0.169976 27.02 0.140184 28.5214 0.366735 29.33V29.3757L1.41993 32.9471C2.01493 34.9894 3.21177 36.776 4.83504 38.0453C6.4583 39.3145 8.42265 39.9995 10.4402 40H17.5604C22.7589 40 27 35.5071 27 30V15.8486V15.67V15.58V15.5357C26.9892 15.4914 26.973 15.4457 26.9582 15.4014C26.8368 13.8286 25.936 12.36 24.4715 11.7414C23.4547 11.3114 22.3854 11.3729 21.4374 11.7857C20.996 10.8779 20.2642 10.1659 19.3728 9.77714C18.8674 9.56551 18.327 9.46426 17.7838 9.47948C17.2406 9.49471 16.7059 9.62608 16.2118 9.86572V4.28571C16.2118 1.93571 14.3846 0 12.1663 0ZM12.1663 2.85714C12.9295 2.85714 13.5148 3.47714 13.5148 4.28571V13.7057L12.1245 17.4557C11.9289 17.9816 11.8287 18.5419 11.8292 19.1071L6.30831 19.8657L2.81025 7.54429C2.75481 7.36551 2.73385 7.17675 2.74863 6.98922C2.7634 6.80169 2.8136 6.61922 2.89624 6.45265C2.97888 6.28608 3.09229 6.1388 3.22972 6.01957C3.36714 5.90033 3.52579 5.81158 3.69623 5.75857C4.42308 5.52429 5.16072 5.97143 5.38188 6.74143L8.16253 16.5171L9.67961 16.0271H10.8178V4.28571C10.8178 3.47714 11.403 2.85714 12.1663 2.85714ZM17.8139 12.3214C17.9865 12.3157 18.1874 12.3386 18.3614 12.4114C19.0667 12.7114 19.4038 13.5386 19.1193 14.2857L17.6871 18.08V18.1243L17.1383 19.5986C17.1127 19.6757 17.0493 19.71 17.0129 19.7771C16.315 19.1929 15.4572 18.8641 14.568 18.84C14.5842 18.7329 14.568 18.6329 14.6111 18.5257L16.6339 13.2143C16.8443 12.65 17.292 12.3329 17.8139 12.3214ZM22.9113 14.2857C23.092 14.2857 23.2808 14.3029 23.4601 14.3757C23.7073 14.4764 23.92 14.6539 24.0704 14.8848C24.2208 15.1158 24.3019 15.3894 24.303 15.67V15.7143C24.303 15.8871 24.2814 16.0771 24.218 16.25L22.7009 20.2229C22.4177 20.9714 21.6369 21.3286 20.9317 21.0271C20.2264 20.7257 19.9311 19.8986 20.2156 19.1514L21.6477 15.3571C21.6693 15.3 21.6693 15.2343 21.6909 15.1786C21.8325 14.8043 22.09 14.5214 22.4056 14.3743C22.5674 14.3076 22.7405 14.2774 22.914 14.2857H22.9113ZM14.1891 21.6514C14.3552 21.6079 14.5278 21.6001 14.6969 21.6285C14.8659 21.6568 15.0278 21.7207 15.1731 21.8165C15.3184 21.9122 15.4442 22.0378 15.5429 22.1859C15.6416 22.334 15.7113 22.5015 15.748 22.6786C15.8531 23.1414 15.7951 23.3757 15.6643 23.6157C15.5322 23.8557 15.253 24.1514 14.653 24.3757L8.12072 26.1614C7.92436 26.2168 7.74235 26.3185 7.5883 26.4589C7.43425 26.5993 7.31214 26.7747 7.23109 26.9721C7.15004 27.1695 7.11216 27.3838 7.12026 27.5989C7.12837 27.814 7.18226 28.0244 7.2779 28.2143L8.49966 30.58C8.5851 30.7446 8.70043 30.8897 8.83903 31.0069C8.97762 31.1241 9.13673 31.2111 9.3072 31.2629C9.47767 31.3147 9.65612 31.3302 9.83228 31.3087C10.0084 31.2871 10.1788 31.2288 10.3336 31.1371C10.4887 31.0466 10.6253 30.9246 10.7357 30.778C10.8461 30.6314 10.9281 30.4631 10.977 30.2829C11.0259 30.1026 11.0406 29.9139 11.0205 29.7276C11.0003 29.5413 10.9457 29.361 10.8596 29.1971L10.4806 28.4829L15.454 27.0971C15.4944 27.0871 15.5376 27.07 15.5794 27.0543C16.6231 26.6686 17.4606 26.01 17.9824 25.09C18.4086 24.3357 18.5718 23.46 18.4881 22.59C18.8819 23.0414 19.3876 23.4157 19.9621 23.6614C20.6927 23.9746 21.4942 24.0524 22.2664 23.8852C23.0385 23.718 23.747 23.3132 24.303 22.7214V30C24.303 33.9614 21.2998 37.1429 17.5604 37.1429H10.4388C7.47209 37.1429 4.8654 35.1 3.99156 32.0986L2.98017 28.5271C2.86824 28.1414 2.64708 26.7914 2.81025 25.8029C3.06378 24.2686 3.69623 23.6771 4.28553 23.3029C4.87619 22.93 5.29692 22.9029 5.29692 22.9029H5.38188L14.0623 21.6957C14.1055 21.6857 14.1473 21.6686 14.1891 21.6529V21.6514Z" fill="#6C63FF"/>
</svg>
