<svg width="30" height="31" viewBox="0 0 30 31" fill="none" xmlns="http://www.w3.org/2000/svg">
<path d="M23.8311 24.1924C25.5033 24.0177 26.8196 22.5303 26.8196 20.7082C26.8196 20.1306 26.6873 19.5748 26.438 19.0765C26.4152 19.031 26.3978 18.9841 26.3856 18.9366C26.3621 18.9046 26.341 18.8703 26.3226 18.8336C25.5371 17.2633 24.4483 16.7264 22.8744 17.1098C22.4986 17.2014 22.1198 16.971 22.0283 16.5952C21.9367 16.2194 22.1671 15.8406 22.5429 15.7491C24.5853 15.2515 26.2185 15.9349 27.3015 17.7114C27.9893 17.0599 28.4028 16.1225 28.4028 15.1059C28.4028 13.8231 27.7443 12.6662 26.707 12.0511C26.391 11.8637 26.2736 11.4639 26.438 11.1353C26.6873 10.6371 26.8196 10.0813 26.8196 9.50367C26.8196 7.64924 25.4562 6.14157 23.7419 6.01139C23.3767 7.99832 22.1265 9.20447 20.0842 9.50273C19.7015 9.55862 19.3459 9.29369 19.29 8.911C19.2341 8.5283 19.4991 8.17276 19.8818 8.11687C21.4847 7.88279 22.2931 6.97713 22.4332 5.22688L22.4339 5.21854C22.3838 3.30824 20.9109 1.80059 19.1165 1.80059C17.2908 1.80059 15.7978 3.36143 15.7978 5.30199V24.9098C15.7978 26.8504 17.2908 28.4113 19.1165 28.4113C20.9422 28.4113 22.4352 26.8504 22.4352 24.9098C22.4352 24.7819 22.4667 24.6634 22.5217 24.5611C22.4729 24.475 22.4416 24.3771 22.4332 24.2719C22.2931 22.5216 21.4847 21.6159 19.8818 21.3819C19.4991 21.326 19.2341 20.9704 19.29 20.5877C19.3459 20.205 19.7015 19.9401 20.0842 19.996C22.3477 20.3266 23.6382 21.7723 23.8293 24.1601C23.8301 24.1709 23.8308 24.1817 23.8311 24.1924ZM6.39888 24.1959C6.39923 24.184 6.39989 24.1721 6.40084 24.1601C6.59197 21.7723 7.88242 20.3266 10.146 19.996C10.5287 19.9401 10.8842 20.205 10.9401 20.5877C10.996 20.9704 10.7311 21.326 10.3484 21.3819C8.74543 21.6159 7.93703 22.5216 7.79694 24.2719C7.78757 24.389 7.74989 24.497 7.69117 24.5899C7.73508 24.6813 7.75977 24.7839 7.75977 24.8927C7.75977 26.8504 9.25275 28.4113 11.0785 28.4113C12.9042 28.4113 14.3972 26.8504 14.3972 24.9098V5.30199C14.3972 3.36143 12.9042 1.80059 11.0785 1.80059C9.32552 1.80059 7.87932 3.23948 7.76681 5.07183C7.78236 5.12121 7.79263 5.17309 7.79694 5.22688C7.93703 6.97713 8.74543 7.88279 10.3484 8.11687C10.7311 8.17276 10.996 8.5283 10.9401 8.911C10.8842 9.29369 10.5287 9.55862 10.146 9.50273C8.10274 9.20435 6.8524 7.99734 6.48778 6.00895C4.75722 6.12128 3.37541 7.63675 3.37541 9.50367C3.37541 10.0813 3.50765 10.6371 3.75701 11.1353C3.77978 11.1808 3.79714 11.2277 3.80932 11.2752C3.83001 11.3043 3.84874 11.3354 3.86521 11.3683C4.65076 12.9386 5.73956 13.4755 7.31346 13.0921C7.68922 13.0005 8.06805 13.2309 8.15959 13.6067C8.25113 13.9825 8.02072 14.3613 7.64496 14.4528C5.60664 14.9494 3.97583 14.2697 2.89279 12.5011C2.20542 13.1526 1.79216 14.0897 1.79216 15.1059C1.79216 16.3888 2.45074 17.5456 3.48798 18.1608C3.80399 18.3482 3.92143 18.7479 3.75701 19.0765C3.50765 19.5748 3.37541 20.1306 3.37541 20.7082C3.37541 22.543 4.71014 24.0384 6.39888 24.1959ZM15.0975 2.73138C15.9274 1.33394 17.4142 0.400024 19.1165 0.400024C21.503 0.400024 23.4661 2.23566 23.7892 4.61069C26.2675 4.76551 28.2201 6.90323 28.2201 9.50367C28.2201 10.0885 28.1212 10.6595 27.9313 11.1958C29.0945 12.1099 29.8034 13.5453 29.8034 15.1059C29.8034 16.6666 29.0945 18.102 27.9313 19.016C28.1212 19.5523 28.2201 20.1233 28.2201 20.7082C28.2201 23.3086 26.2675 25.4463 23.7892 25.6012C23.4661 27.9762 21.503 29.8118 19.1165 29.8118C17.4142 29.8118 15.9274 28.8779 15.0975 27.4805C14.2676 28.8779 12.7807 29.8118 11.0785 29.8118C8.69199 29.8118 6.72887 27.9762 6.40583 25.6012C3.92747 25.4463 1.97484 23.3086 1.97484 20.7082C1.97484 20.1233 2.07379 19.5523 2.26368 19.016C1.10046 18.102 0.391602 16.6666 0.391602 15.1059C0.391602 13.5453 1.10046 12.1099 2.26368 11.1958C2.07379 10.6595 1.97484 10.0885 1.97484 9.50367C1.97484 6.90323 3.92747 4.76551 6.40583 4.61069C6.72887 2.23566 8.69199 0.400024 11.0785 0.400024C12.7807 0.400024 14.2676 1.33394 15.0975 2.73138Z" fill="#6C63FF"/>
</svg>
