<svg width="39" height="38" viewBox="0 0 39 38" fill="none" xmlns="http://www.w3.org/2000/svg">
<path d="M14.883 0C13.5061 0 12.2974 0.7125 11.444 1.63242C10.5905 2.55392 9.97594 3.705 9.43054 4.94792C8.59594 6.86375 8.00024 8.99333 7.46584 10.9852C5.75892 11.4855 4.30976 12.1093 3.14351 12.8646C1.7808 13.7497 0.638133 14.9736 0.638133 16.625C0.638133 18.0595 1.51046 19.2106 2.60283 20.0387C3.53645 20.7448 4.68384 21.3323 6.04183 21.8199C6.12042 22.1841 6.2383 22.5562 6.38448 22.9093C5.05949 23.6629 2.95805 25.1228 0.933624 27.9062L0 29.2426L1.32656 30.1815L6.48192 33.744L4.37263 38H34.6289L32.5165 33.744L37.675 30.1815L39 29.2426L38.0679 27.9062C36.0404 25.1228 33.9421 23.6629 32.614 22.9093C32.7633 22.5562 32.8796 22.1857 32.9597 21.8199C34.3162 21.3323 35.4635 20.7432 36.3972 20.0387C37.4895 19.2106 38.3619 18.0595 38.3619 16.625C38.3619 14.9736 37.2192 13.7497 35.8565 12.8646C34.6902 12.1093 33.2411 11.4855 31.5342 10.9836C30.9447 8.91892 30.294 6.7545 29.472 4.84975C28.9376 3.61792 28.3482 2.48583 27.5073 1.58333C26.6664 0.680833 25.4687 0 24.117 0C23.2023 0 22.5091 0.253334 21.7594 0.444917C21.0112 0.6365 20.2552 0.791667 19.5008 0.791667C17.9919 0.791667 16.7251 0 14.883 0ZM14.883 3.16667C15.2083 3.16667 17.1416 3.95833 19.4992 3.95833C20.678 3.95833 21.728 3.71767 22.5453 3.51342C23.361 3.30758 23.9819 3.16667 24.117 3.16667C24.4785 3.16667 24.7489 3.28383 25.1968 3.76042C25.6448 4.23542 26.1729 5.09675 26.6208 6.13542C27.4743 8.10192 28.125 10.7873 28.8323 13.2604C28.8323 13.2541 28.9172 13.186 28.6846 13.3095C28.2916 13.5264 27.468 13.8051 26.4731 13.9523C24.4785 14.2563 21.7578 14.25 19.4992 14.25C17.2516 14.25 14.5262 14.2183 12.5238 13.9033C11.5241 13.7497 10.7131 13.4757 10.3139 13.2604C10.1913 13.1923 10.1488 13.2177 10.1174 13.2113V13.1622C10.1237 13.1496 10.1111 13.1243 10.1174 13.1116L10.1661 13.0625C10.2837 12.8496 10.3515 12.6123 10.3642 12.369V12.3215C10.9284 10.2172 11.5603 7.99108 12.3289 6.23358C12.7878 5.1775 13.2861 4.31775 13.7529 3.81108C14.2197 3.30283 14.5387 3.16667 14.883 3.16667ZM7.21908 14.3988C7.57587 15.1414 8.203 15.7352 8.84113 16.0803C9.7999 16.5933 10.897 16.8356 12.0821 17.0208C14.4523 17.3913 17.228 17.4167 19.4992 17.4167C21.7594 17.4167 24.5398 17.4293 26.9163 17.0699C28.1077 16.891 29.1938 16.6567 30.1573 16.1294C30.8017 15.7779 31.4288 15.1525 31.7793 14.3988C32.7491 14.7456 33.5649 15.1161 34.137 15.4866C35.0517 16.0803 35.2168 16.5205 35.2168 16.625C35.2168 16.7184 35.1382 17.0208 34.4796 17.5164C33.8226 18.0104 32.6941 18.5852 31.2387 19.0491C28.3278 19.9833 24.1406 20.5833 19.4992 20.5833C14.8578 20.5833 10.6707 19.9833 7.75976 19.0491C6.30432 18.5852 5.17579 18.0104 4.5188 17.5164C3.86023 17.0208 3.78165 16.7184 3.78165 16.625C3.78165 16.5205 3.90424 16.1247 4.81272 15.5357C5.38484 15.1652 6.22573 14.763 7.22065 14.3988H7.21908ZM11.2962 23.0581C11.8118 23.1436 12.3226 23.2861 12.868 23.3542C13.0723 24.7459 14.1458 25.9698 15.8637 26.0759C17.1903 26.1551 18.6819 25.5249 18.8124 23.75H20.1876C20.3165 25.5249 21.8066 26.1567 23.1347 26.0759C24.8526 25.9698 25.9277 24.7459 26.1305 23.3542C26.6759 23.2861 27.1867 23.1436 27.7022 23.0565L27.5545 24.0461C27.0688 26.6507 25.9151 29.0621 24.4597 30.7278C23.0042 32.3887 21.2989 33.2738 19.4992 33.25C17.6508 33.2247 15.9816 32.3285 14.5387 30.6771C13.0959 29.0257 11.9611 26.6633 11.444 24.0461L11.2962 23.0581ZM30.5015 25.3333C31.0846 25.6801 32.6202 26.695 34.3822 28.6488L29.6166 31.9628L28.4881 32.7069L29.0775 33.9419L29.5192 34.8333H24.5587C25.3944 34.2571 26.1535 33.5755 26.8173 32.8051C28.5494 30.8259 29.7093 28.234 30.3538 25.4315C30.4088 25.4014 30.4528 25.365 30.5015 25.3333ZM8.44819 25.3824C8.50949 25.4204 8.58336 25.4458 8.64466 25.4822C9.32052 28.2467 10.4742 30.8069 12.1811 32.7544C12.8868 33.5651 13.7089 34.2586 14.5875 34.8333H9.47927L9.92093 33.9419L10.5103 32.7069L9.38025 31.9628L4.61782 28.6488C6.28074 26.7995 7.79748 25.7783 8.44819 25.3824Z" fill="#6C63FF"/>
</svg>
