<svg width="28" height="40" viewBox="0 0 28 40" fill="none" xmlns="http://www.w3.org/2000/svg">
<path d="M13.8983 0C12.2089 0 10.8098 1.39385 10.8098 3.07692C10.8098 4.2 11.4306 5.18615 12.354 5.72154V8.07692C12.354 8.73231 11.8537 9.23077 11.1959 9.23077H7.57612C7.35091 9.23341 7.12832 9.18244 6.92687 9.08209C6.72542 8.98174 6.55093 8.83492 6.41793 8.65385C6.82022 8.37154 7.14857 7.99711 7.37538 7.56206C7.60218 7.12702 7.72081 6.64407 7.72128 6.15385C7.72128 4.47077 6.32218 3.07692 4.63277 3.07692C2.94335 3.07692 1.54426 4.47077 1.54426 6.15385C1.54426 7.27692 2.16505 8.26308 3.08851 8.79846V11.3938L3.52245 11.8754L7.14218 15.4815C6.80134 15.609 6.51681 15.8526 6.33902 16.1691C6.16122 16.4857 6.10165 16.8547 6.17085 17.2108C6.23906 17.5682 6.43226 17.8901 6.71612 18.1191C6.99997 18.3481 7.35611 18.4694 7.72128 18.4615H8.73431L6.32218 27.02L6.2249 27.26L5.21186 29.2308H2.94335C2.09401 29.2723 1.42998 29.9938 1.47168 30.8415C1.51337 31.6877 2.23763 32.3492 3.08851 32.3077L0.288776 36.0092L0 36.3938V40H27.7966V36.3938L27.5063 36.0092L24.7081 32.3077C25.264 32.3138 25.7814 32.0246 26.0655 31.5446C26.2018 31.3088 26.2736 31.0414 26.2736 30.7692C26.2736 30.4971 26.2018 30.2297 26.0655 29.9938C25.7814 29.5138 25.2625 29.2246 24.7081 29.2308H22.5847L21.5717 27.26L21.5223 27.1631L21.476 27.02L19.0608 18.4615H20.0753C20.4408 18.4718 20.798 18.3522 21.0832 18.1242C21.3683 17.8962 21.5628 17.5746 21.6319 17.2169C21.7012 16.859 21.641 16.4883 21.462 16.1704C21.2831 15.8524 20.997 15.6079 20.6544 15.48L24.2742 11.8754L24.7081 11.3938V8.8C25.6316 8.26462 26.2524 7.27846 26.2524 6.15538C26.2524 4.47231 24.8533 3.07846 23.1638 3.07846C21.4744 3.07846 20.0753 4.47231 20.0753 6.15538C20.0753 7.18308 20.588 8.09692 21.3787 8.65539C21.2457 8.83646 21.0712 8.98328 20.8697 9.08363C20.6683 9.18398 20.4457 9.23495 20.2205 9.23231H16.6008C16.4478 9.23523 16.2959 9.20739 16.1541 9.15044C16.0122 9.09349 15.8834 9.0086 15.7752 8.90087C15.6671 8.79314 15.5819 8.66477 15.5247 8.52346C15.4676 8.38214 15.4396 8.23079 15.4426 8.07846V5.72154C16.366 5.18615 16.9868 4.2 16.9868 3.07692C16.9868 1.39385 15.5877 0 13.8983 0ZM13.8983 11.2985C14.6395 11.9169 15.5692 12.3077 16.6008 12.3077H19.4005L16.312 15.3846H11.4862L8.39766 12.3077H11.1959C12.2274 12.3077 13.1571 11.9169 13.8983 11.2985ZM11.968 18.4615H15.8286L18.5789 28.1246L18.6284 28.2692L19.1102 29.2308H8.68644L9.16979 28.2692L9.21612 28.1246L11.968 18.4615ZM6.94915 32.3077H20.8475L24.322 36.9231H3.47458L6.94915 32.3077Z" fill="#6C63FF"/>
</svg>
