<svg width="30" height="30" viewBox="0 0 30 30" fill="none" xmlns="http://www.w3.org/2000/svg">
<path d="M15.0001 30C6.72881 30 0 23.2715 0 15.0001C0 6.72881 6.72881 0 15.0001 0C23.2715 0 30.0003 6.72881 30.0003 15.0001C30.0003 23.2712 23.2715 30 15.0001 30ZM15.0001 1.19662C7.38891 1.19662 1.19692 7.38861 1.19692 14.9998C1.19692 22.6108 7.38891 28.8028 15.0001 28.8028C22.6114 28.8028 28.8034 22.6108 28.8034 14.9998C28.8034 7.38891 22.6114 1.19662 15.0001 1.19662Z" fill="#555555"/>
<path d="M12.1377 18.5754C12.1377 18.5754 9.74115 20.4043 7.59689 20.152C5.45262 19.8998 15.4802 23.873 19.5795 17.8816C21.1562 15.6112 21.2823 13.2778 21.3454 12.521C21.3454 12.3948 21.4085 12.2056 21.4715 12.0795L22.6698 10.3767L21.1562 10.8182L22.6067 8.80005L20.9039 9.55685C20.6517 9.68298 20.3363 9.61991 20.0841 9.49378C19.4534 9.05232 18.0659 8.29552 16.4893 9.43071C15.2279 10.3136 14.9126 11.2596 14.7865 11.8903C14.7234 12.3318 14.2819 12.6471 13.8405 12.521C12.6422 12.2687 10.6241 11.7011 9.17355 10.3767C8.73209 9.87218 7.84915 10.1244 7.84915 10.8182C7.84915 11.4488 8.10142 12.3948 9.17355 13.6562L7.84915 13.0255C7.84915 13.0255 7.59689 15.0436 10.2457 16.2419L8.92129 16.4942" stroke="#555555" stroke-miterlimit="10" stroke-linecap="round" stroke-linejoin="round"/>
</svg>
