<svg width="30" height="30" viewBox="0 0 30 30" fill="none" xmlns="http://www.w3.org/2000/svg">
<path d="M15.0001 30C6.72881 30 0 23.2715 0 15.0001C0 6.72881 6.72881 0 15.0001 0C23.2715 0 30.0003 6.72881 30.0003 15.0001C30.0003 23.2712 23.2715 30 15.0001 30ZM15.0001 1.19662C7.38891 1.19662 1.19692 7.38861 1.19692 14.9998C1.19692 22.6108 7.38891 28.8028 15.0001 28.8028C22.6114 28.8028 28.8034 22.6108 28.8034 14.9998C28.8034 7.38891 22.6114 1.19662 15.0001 1.19662Z" fill="#555555"/>
<path d="M12.1379 18.5754C12.1379 18.5754 9.7414 20.4043 7.59713 20.152C5.45287 19.8998 15.4805 23.873 19.5798 17.8816C21.1565 15.6112 21.2826 13.2778 21.3456 12.521C21.3456 12.3948 21.4087 12.2056 21.4718 12.0795L22.67 10.3767L21.1565 10.8182L22.607 8.80005L20.9042 9.55685C20.6519 9.68298 20.3366 9.61991 20.0843 9.49378C19.4537 9.05232 18.0662 8.29552 16.4895 9.43071C15.2282 10.3136 14.9129 11.2596 14.7867 11.8903C14.7237 12.3318 14.2822 12.6471 13.8407 12.521C12.6425 12.2687 10.6243 11.7011 9.1738 10.3767C8.73233 9.87218 7.8494 10.1244 7.8494 10.8182C7.8494 11.4488 8.10166 12.3948 9.1738 13.6562L7.8494 13.0255C7.8494 13.0255 7.59713 15.0436 10.2459 16.2419L8.92153 16.4942" stroke="#555555" stroke-miterlimit="10" stroke-linecap="round" stroke-linejoin="round"/>
</svg>
